# xmcd
#
# Track frame offsets:
#	150
#	19722
#	36752
#	55555
#	72710
#	89447
#	106820
#	125087
#	140725
#	158927
#
# Disc length: 2313 seconds
#
# Revision: 0
# Processed by: cddbd v1.5.2PL0 Copyright (c) Steve Scherf et al.
# Submitted via: audiograbber 1.83.01
#
DISCID=8b09070a
DTITLE=Graeme Connors - The Return
DYEAR=1993
DGENRE=Country
TTITLE0=Prodigal Son
TTITLE1=One Honest Tear
TTITLE2=A Sacred Place
TTITLE3=Helpless Heart
TTITLE4=You've Got Something
TTITLE5=Train
TTITLE6=I'm Gonna Talk You Off Your Feet
TTITLE7=Quiet Love
TTITLE8=An Old Piece Of Wood
TTITLE9=Reckless Heart
EXTD=
EXTT0=
EXTT1=
EXTT2=
EXTT3=
EXTT4=
EXTT5=
EXTT6=
EXTT7=
EXTT8=
EXTT9=
PLAYORDER=
